<svg id="BSR_weiss" xmlns="http://www.w3.org/2000/svg" width="46" height="46" viewBox="0 0 46 46">
  <g id="Gruppe_94" data-name="Gruppe 94" transform="translate(4.78 9.2)">
    <g id="Gruppe_93" data-name="Gruppe 93">
      <path id="Pfad_50" data-name="Pfad 50" d="M23.051,23.82c1.624,2.165,3.788,4.42,3.878,7.486,0,2.345-1.082,4.42-3.247,4.329-3.247-.09-5.051-3.247-5.231-4.78,0-.271-.451-.271-.451.09,0,1.263.271,3.969.361,6.494,0,.271.361.271.451,0s.18-.812.541-.812c.631,0,1.533,1.263,4.69,1.443A5.763,5.763,0,0,0,30,33.832c1.443-5.141-2.165-9.471-2.886-10.463-2.255-3.157-3.969-4.6-4.871-6.314-2.165-4.059.631-4.961,1.984-4.871,1.714.09,3.247.812,4.059,3.337.09.361.451.361.451,0q-.135-2.841-.271-4.871c0-.271-.361-.271-.451,0-.09.451-.18.812-.631.631A7.988,7.988,0,0,0,23.5,10.2c-4.51,0-6.4,4.059-4.78,7.486A51.42,51.42,0,0,0,23.051,23.82Z" transform="translate(-6.545 -10.2)" fill="#fff"/>
      <path id="Pfad_51" data-name="Pfad 51" d="M12.065,18.337c1.8-.631,2.886-1.533,2.8-4.149-.18-3.608-3.608-3.788-4.69-3.788H5.661c-.361,0-.361.451,0,.451.451,0,.361.18.361,1.8V24.02c0,1.443,0,1.714-.451,1.8-.361,0-.361.451,0,.451h4.69c3.788-.09,4.871-2.435,4.961-4.329A3.62,3.62,0,0,0,12.065,18.337ZM8.818,11.663c2.255-.09,3.067.992,3.067,2.616.09,2.435-.722,3.247-3.067,3.247V11.663Zm0,13.259V18.969c2.345-.09,3.518.992,3.518,2.706C12.426,24.11,11.253,24.922,8.818,24.922Z" transform="translate(-5.3 -10.22)" fill="#fff" fill-rule="evenodd"/>
      <path id="Pfad_52" data-name="Pfad 52" d="M44.681,38.094c-.361,0-.451-.271-.722-.722L40.171,30.7a4.156,4.156,0,0,0,3.067-4.149c0-3.969-3.7-4.149-4.961-4.149h-4.51c-.361,0-.451.451,0,.541.361,0,.361.271.361,2.255V35.569c0,1.894.09,2.526-.451,2.526-.271,0-.18.451,0,.451h3.608a.227.227,0,0,0,0-.451c-.541,0-.451-.631-.451-2.526v-4.42H37.1l4.059,7.4h3.518A.227.227,0,0,0,44.681,38.094Zm-7.847-8.388V23.573c2.435-.18,3.518,1.263,3.608,2.886C40.532,28.894,39.179,29.706,36.834,29.706Z" transform="translate(-8.061 -11.396)" fill="#fff" fill-rule="evenodd"/>
    </g>
  </g>
  <g id="Gruppe_95" data-name="Gruppe 95">
    <path id="Pfad_53" data-name="Pfad 53" d="M0,0V46H46V0ZM44.828,1.173V44.828H1.173V1.173Z" fill="#fff"/>
  </g>
</svg>
